<?xml version="1.0" encoding="UTF-8" standalone="no"?>
<svg
   xmlns:dc="http://purl.org/dc/elements/1.1/"
   xmlns:cc="http://creativecommons.org/ns#"
   xmlns:rdf="http://www.w3.org/1999/02/22-rdf-syntax-ns#"
   xmlns:svg="http://www.w3.org/2000/svg"
   xmlns="http://www.w3.org/2000/svg"
   xmlns:sodipodi="http://sodipodi.sourceforge.net/DTD/sodipodi-0.dtd"
   xmlns:inkscape="http://www.inkscape.org/namespaces/inkscape"
   viewBox="0 0 919.53003 999.99999"
   height="1000"
   width="919.53003"
   xml:space="preserve"
   id="svg2"
   version="1.1"
   inkscape:version="0.91 r13725"
   sodipodi:docname="Star Wars 40th Anniversary.svg"><sodipodi:namedview
     pagecolor="#ffffff"
     bordercolor="#666666"
     borderopacity="1"
     objecttolerance="10"
     gridtolerance="10"
     guidetolerance="10"
     inkscape:pageopacity="0"
     inkscape:pageshadow="2"
     inkscape:window-width="1366"
     inkscape:window-height="705"
     id="namedview24"
     showgrid="false"
     inkscape:zoom="0.35355339"
     inkscape:cx="425.32275"
     inkscape:cy="330.22098"
     inkscape:window-x="-8"
     inkscape:window-y="-8"
     inkscape:window-maximized="1"
     inkscape:current-layer="svg2" /><metadata
     id="metadata8"><rdf:RDF><cc:Work
         rdf:about=""><dc:format>image/svg+xml</dc:format><dc:type
           rdf:resource="http://purl.org/dc/dcmitype/StillImage" /><dc:title></dc:title></cc:Work></rdf:RDF></metadata><defs
     id="defs6" /><path
     id="path14"
     style="fill:#000000;fill-opacity:1;fill-rule:nonzero;stroke:none"
     d="m 743.02627,982.93616 6.45842,-0.006 0.005,16.54617 2.48875,0 0.005,-16.6881 6.47691,-0.023 0,-2.47643 -15.45489,0.006 z m 31.85906,-2.66442 -5.57695,15.51803 -5.62935,-15.49322 -3.22227,-0.0157 0,19.19535 2.48875,0 0.0447,-14.49522 4.94514,14.47957 2.79079,0.0572 5.10386,-14.84315 0.0755,14.80161 2.48875,0 0.003,-19.1935 -3.51199,-0.0104"
     inkscape:connector-curvature="0" /><path
     id="path16"
     style="fill:#000000;fill-opacity:1;fill-rule:nonzero;stroke:none"
     d="m 542.11878,904.99596 c -2.92024,1.72286 -6.47538,1.21109 -9.70381,1.28999 -9.30623,0 -29.04979,0 -29.04979,0 l -0.001,-20.1675 c 0,0 22.42647,0 32.78829,0 4.75867,0 10.1168,3.12242 10.66541,8.21504 1.00782,4.04995 -0.86298,8.80246 -4.69857,10.66247 z M 683.942,841.23623 c -6.57553,0 -13.06631,1.38845 -19.15951,3.76162 -6.76046,2.63052 -13.23583,6.31527 -18.21795,11.67632 -6.9608,7.49383 -11.97527,17.04985 -12.87214,27.29595 -1.014,11.60697 2.74763,23.20792 8.89939,33.00127 1.79837,2.86291 4.0683,5.37184 6.31511,7.88509 4.54292,5.08121 9.2307,10.03713 14.04331,14.86668 0.58251,0.74694 1.58726,1.40974 1.20662,2.58414 -0.42532,1.31111 -1.93706,1.58263 -3.13597,1.58263 -17.1531,0 -67.99601,0 -77.55188,0 -3.21765,0 -7.2428,-0.69838 -8.98569,-3.94825 -0.38372,-0.71518 0.21574,-1.40679 0.75664,-1.79806 8.34309,-5.01017 16.61991,-10.91844 21.7099,-19.43258 4.49053,-7.51062 6.67417,-16.31016 6.56938,-25.04344 -0.0601,-5.05885 -0.43611,-10.17073 -1.81841,-15.06471 -2.63207,-9.33689 -8.39703,-17.62173 -15.80162,-23.81647 -8.23214,-6.88529 -18.4414,-11.11384 -28.945,-12.95537 -3.40103,-0.59329 -9.05504,-0.59482 -13.82142,-0.59482 -6.61251,0 -103.33006,0 -103.33006,0 l 10e-4,158.76366 62.86286,0 0,-44.71134 c 0,0 23.9151,23.60536 33.42782,33.03208 7.33218,7.26448 17.70478,10.44043 27.73067,11.61124 41.70002,0.10353 83.40158,0.003 125.10469,0.0494 11.14312,0.009 22.24925,-3.9278 30.85123,-11.0225 6.9346,-5.72221 12.04308,-13.5224 14.84774,-22.05534 2.85397,-8.68196 3.06047,-18.0623 1.40849,-26.99421 -1.48092,-8.00067 -5.24101,-15.48433 -10.46815,-21.68817 -6.48,-7.69416 -13.54866,-14.85991 -20.38925,-22.22615 -0.64415,-0.73322 -1.68434,-1.59819 -1.04481,-2.62451 0.5748,-0.92769 2.14973,-0.66711 2.89249,-0.66711 2.686,0 76.60107,0 76.60107,0 l 0,-51.467 c 0,0 -85.66227,0 -99.68709,0"
     inkscape:connector-curvature="0" /><path
     id="path18"
     style="fill:#000000;fill-opacity:1;fill-rule:nonzero;stroke:none"
     d="m 321.06089,933.92076 13.68889,-44.50298 13.712,44.50298 z m 56.37208,-92.68453 -88.35596,0 -47.6191,158.76366 59.27691,0 7.05479,-22.9384 53.96656,0 7.06711,22.9384 57.50012,0 -48.89043,-158.76366"
     inkscape:connector-curvature="0" /><path
     id="path20"
     style="fill:#000000;fill-opacity:1;fill-rule:nonzero;stroke:none"
     d="m 20.994558,841.23776 64.18783,0 12.414771,43.02546 12.414311,-43.02546 65.77893,-10e-4 13.21888,43.02699 13.21734,-43.02545 59.9719,-10e-4 -1.83382,7.04832 -46.09038,151.71538 -53.90953,0 -18.6781,-60.78854 -18.67887,60.78854 -53.202045,0 -48.811217,-158.76216"
     inkscape:connector-curvature="0" /><path
     id="path22"
     style="fill:#000000;fill-opacity:1;fill-rule:nonzero;stroke:none"
     d="m 667.99397,728.33642 c -1.76755,2.73532 -4.98057,4.45201 -8.2275,4.45201 -10.22314,0 -34.07968,0 -34.07968,0 l 0,-20.14577 c 0,0 23.10915,-10e-4 32.82837,-10e-4 4.0652,0 8.44171,2.17899 10.06132,6.12402 1.04636,3.07125 1.04327,6.69881 -0.58251,9.57127 z m 40.85709,42.10377 c -3.55668,-0.2065 -7.5772,0.0616 -10.64691,-2.06496 -0.89534,-0.71813 -2.24374,-2.30691 -0.99396,-3.3394 6.59556,-4.264 13.35448,-8.60815 18.44139,-14.71366 5.93909,-7.12569 9.37249,-16.18534 10.03667,-25.37292 0.55939,-7.76828 -0.0154,-15.77542 -2.74918,-23.14458 -3.56438,-9.60673 -10.43734,-17.77106 -18.82974,-23.56375 -7.10102,-4.90354 -15.32545,-8.01486 -23.76254,-9.64217 -4.86962,-1.11261 -9.90722,-0.80595 -14.85697,-0.8414 -34.47573,0.0154 -103.43486,0.008 -103.43486,0.008 l 0,158.9717 62.8305,0 0,-44.82522 c 0,0 26.40231,26.04171 33.30917,32.71279 6.44146,6.22111 15.1359,9.70536 23.62692,11.28182 4.47359,0.83061 9.70998,0.83061 14.56727,0.83061 5.57541,0 87.24027,0 87.24027,0 l 0,-56.29195 c 0,0 -49.85819,0.008 -74.77803,-0.005"
     inkscape:connector-curvature="0" /><path
     id="path24"
     style="fill:#000000;fill-opacity:1;fill-rule:nonzero;stroke:none"
     d="m 446.54312,760.55146 13.68889,-44.5617 13.71509,44.5617 z m 56.37362,-92.80643 -88.35596,0 -47.61908,158.9717 59.2769,0 7.05633,-22.96892 53.96501,0 7.06713,22.96892 57.50318,0 -48.89351,-158.9717"
     inkscape:connector-curvature="0" /><path
     id="path26"
     style="fill:#000000;fill-opacity:1;fill-rule:nonzero;stroke:none"
     d="m 145.36464,673.74576 c 7.32771,-3.42877 15.26211,-5.99457 23.42491,-5.98379 73.52056,0 220.56013,0.003 220.56013,0.003 l -0.057,51.75518 -68.72491,0.0832 0,107.1333 -56.44297,0 0,-107.39373 c 0,0 -48.93665,-0.037 -73.40343,0.0339 -1.45627,0.0277 -1.10183,1.94169 -0.29896,2.76768 6.39831,6.60481 13.45619,14.63507 19.74202,21.37858 4.26554,4.57683 7.50015,10.11526 9.60826,16.03431 2.64286,7.42002 3.39642,15.42563 2.7461,23.21394 -0.5563,6.66492 -2.70449,13.16648 -5.88053,19.07013 -7.06096,13.12796 -20.68512,22.56055 -35.35103,24.22177 -4.10681,0.46538 -12.35282,0.67342 -16.47504,0.67342 -11.69496,0 -143.817617,0 -143.817617,0 l 0,-56.29194 c 0,0 84.089807,0.0124 125.876127,0.0124 1.00705,0 2.42171,-0.0494 2.8287,-1.17425 0.57125,-1.58263 -0.99875,-2.55193 -1.84754,-3.56747 -5.31405,-6.36287 -11.39322,-12.14786 -16.84104,-18.29962 -5.97207,-6.74196 -8.77842,-14.21438 -10.61856,-22.30165 -1.63918,-7.20582 -1.77279,-14.85236 0.29742,-21.98729 3.66763,-12.63174 12.69832,-23.77949 24.67497,-29.3811"
     inkscape:connector-curvature="0" /><path
     id="path28"
     style="fill:#000000;fill-opacity:1;fill-rule:nonzero;stroke:none"
     d="m 540.30807,0.00377543 6.22573,0 -0.0231,154.25463457 -16.49818,-10.82104 11.14005,16.94197 -25.36983,-0.93539 19.38296,6.85138 -150.84128,0.29741 c 9.87178,-7.4909 20.61115,-13.77673 31.52004,-19.62952 20.58341,-10.79177 42.63234,-18.77888 65.34236,-23.71939 19.403,-4.19774 39.27292,-6.03464 59.11355,-6.00073 l 0.008,-117.23932457"
     inkscape:connector-curvature="0" /><path
     id="path30"
     style="fill:#000000;fill-opacity:1;fill-rule:nonzero;stroke:none"
     d="m 556.27305,6.9542969e-4 5.97761,0.003 0.009,118.51528457 c 35.9474,3.50891 71.12582,14.58884 102.58268,32.33677 8.24137,4.74789 16.38567,9.72539 23.98599,15.46569 l -118.47214,-0.0124 17.16851,-6.83751 -25.49002,-0.58406 9.73308,-32.19654 -15.42562,21.09965 -0.0693,-147.79004457031"
     inkscape:connector-curvature="0" /><path
     id="path32"
     style="fill:#000000;fill-opacity:1;fill-rule:nonzero;stroke:none"
     d="m 94.773393,386.40241 124.489207,0 0,-148.01042 z m 142.496027,-275.6162 65.5612,0 0,126.32364 c 0,0 0,0.0124 -0.43766,0.68114 -9.43258,15.65831 -17.23169,32.29209 -23.32335,49.52687 -8.90555,25.1926 -14.06798,51.69969 -15.20987,78.37939 -0.73045,17.10688 -0.0447,34.29542 2.39937,51.25589 5.16396,35.82873 16.94661,70.64348 36.07067,101.65189 0.22808,0.36831 0.50084,0.8075 0.50084,0.8075 l 0,39.10803 -83.56802,0 0,-101.26819 L 0,457.24621 0,393.02572 237.26942,110.78621"
     inkscape:connector-curvature="0" /><path
     id="path34"
     style="fill:#000000;fill-opacity:1;fill-rule:nonzero;stroke:none"
     d="m 381.94662,168.1692 c 0.56093,-0.41453 0.94773,-0.51932 0.94773,-0.51932 l 127.72442,2.48566 24.2757,0.57019 c 0,0 -4.65543,5.83738 -6.87295,8.83621 -41.40107,1.65814 -82.03933,16.92503 -114.5148,42.64159 -18.19945,14.40854 -33.86855,31.97464 -46.06727,51.71974 -12.66565,20.49712 -21.59895,43.32272 -26.03093,67.0082 -4.89273,26.14496 -4.67236,53.28233 0.95082,79.31326 1.03094,4.77562 2.35314,9.48499 3.55051,14.22363 -1.37614,1.47629 -2.56734,3.10669 -3.888,4.6323 -0.4808,0.60408 -1.3299,0.58558 -2.00949,0.74432 -10.37107,1.45934 -20.21819,5.58311 -29.10063,11.04757 -7.15805,4.4027 -13.79984,9.65295 -19.72661,15.60899 -9.21685,-25.45612 -14.16815,-52.40086 -15.15286,-79.44115 -1.83689,-50.61483 11.58231,-101.63032 38.04318,-144.80356 17.60616,-28.72925 40.76463,-54.10216 67.87118,-74.06763"
     inkscape:connector-curvature="0" /><path
     id="path36"
     style="fill:#000000;fill-opacity:1;fill-rule:nonzero;stroke:none"
     d="m 568.67518,172.42551 124.34189,-3.12674 c 0,0 0.55168,0.2928 1.47013,1.05406 16.04819,12.29118 30.77573,26.32371 43.63863,41.92655 18.1563,22.01965 32.66964,47.04429 42.76486,73.74556 10.0752,26.64578 15.55969,54.96359 16.59372,83.41699 1.84152,50.67185 -11.60235,101.75669 -38.14181,144.94687 -14.35461,23.36034 -32.36451,44.48465 -53.2099,62.28961 -2.55039,2.18671 -5.18708,4.26246 -7.73285,6.45071 30.25179,5.44596 60.28782,12.15711 89.8708,20.5079 43.10235,12.16328 85.71311,26.49015 126.4839,45.14421 1.63501,0.72735 3.23768,1.55026 4.77562,2.49952 -6.0408,-1.76754 -11.94445,-3.94347 -17.94673,-5.80501 -24.8089,-7.68816 -49.77959,-14.86161 -75.01689,-20.97639 -26.69664,-6.4692 -53.56896,-12.23723 -80.63853,-16.92502 -20.61116,-3.57209 -41.30553,-6.68032 -62.06461,-9.23996 -1.47167,0.18184 -2.24065,-1.18351 -2.66905,-2.31769 -0.39451,-2.82624 0.13715,-5.79732 -1.03865,-8.48487 -0.91845,-2.90482 -3.35943,-4.95284 -4.41349,-7.80218 -5.45828,-14.76606 -12.2619,-28.9974 -18.25801,-43.54463 21.74997,-16.49355 39.92015,-37.63327 53.18834,-61.47594 12.77197,-22.94888 20.83305,-48.47743 23.71476,-74.58541 3.59829,-32.6157 -0.92615,-66.09592 -13.26973,-96.50796 -10.34795,-25.4931 -26.12339,-48.71012 -45.79451,-67.94515 -13.32213,-13.02471 -28.5058,-24.12623 -44.9146,-32.91467 -15.17905,-8.13042 -31.43373,-14.28834 -48.22932,-18.13319 -1.19121,-0.29741 -2.91562,-2.06188 -2.91562,-2.06188 l -10.58835,-10.13529"
     inkscape:connector-curvature="0" /><path
     id="path38"
     style="fill:#000000;fill-opacity:1;fill-rule:nonzero;stroke:none"
     d="m 295.80664,478.45528 c 10.9659,-0.31129 22.20919,1.74289 31.88526,7.06712 0.85681,0.5671 1.99716,1.0556 2.33773,2.12969 0.43765,1.34223 0.81674,2.72761 1.24514,4.08833 -2.36084,0.67959 -4.75713,2.05264 -5.71873,4.43352 -2.14817,4.24088 -0.38063,9.81938 3.48888,12.42833 1.91703,1.60266 4.54909,1.65505 6.91456,1.89545 4.35646,0.24195 8.72372,0.0678 13.08943,0.18801 -3.64606,2.9418 -7.64501,5.44134 -11.11076,8.61123 -1.57801,1.46088 -3.04506,3.19145 -3.70769,5.27336 -0.38064,1.93399 -0.35444,4.14998 0.62256,5.92523 1.47938,1.5441 3.37484,3.12211 5.65247,3.08358 1.96171,0.30359 3.74777,-0.59946 5.59853,-1.03248 1.06946,-0.4469 1.86309,0.50083 2.63823,1.01091 1.50403,1.23282 3.18374,2.28687 4.55063,3.68304 2.75381,3.6029 4.38882,7.89773 6.20106,12.01534 3.30549,7.66812 5.92832,15.62133 9.54355,23.15383 -1.36689,0.71042 -2.71066,1.46398 -4.03131,2.25606 -29.96515,-26.27287 -53.90491,-59.40018 -69.19954,-96.21055"
     inkscape:connector-curvature="0" /><path
     id="path40"
     style="fill:#000000;fill-opacity:1;fill-rule:nonzero;stroke:none"
     d="m 591.96309,569.31694 c 7.26283,-2.10811 14.38697,-4.65849 21.38628,-7.5171 5.83277,6.95002 11.83351,13.76441 17.93749,20.48326 3.17604,3.24539 5.49374,7.1981 7.58337,11.19859 -8.25372,-0.46231 -16.47815,-1.31911 -24.73031,-1.80299 -21.32464,-1.47938 -42.68474,-2.26684 -64.04791,-2.75535 -1.55489,-6.53239 -3.27775,-13.02624 -4.34875,-19.6588 13.61337,-0.0725 28.25153,0.42379 41.84487,1.13265 0,0 2.60587,-0.601 4.37496,-1.08026"
     inkscape:connector-curvature="0" /><path
     id="path42"
     style="fill:#000000;fill-opacity:1;fill-rule:nonzero;stroke:none"
     d="m 315.90771,585.34665 c 14.55649,-2.71374 29.16074,-5.24873 43.85283,-7.09024 -9.41564,7.33371 -18.94839,14.53182 -28.58748,21.57892 -1.44084,0.86296 -2.71219,2.14355 -4.35492,2.63052 -92.33796,15.29 -183.19917,40.23759 -269.793746,75.92916 -9.021598,3.71695 -17.924536,7.70511 -26.882336,11.56691 6.189356,-4.10682 12.785078,-7.55716 19.277091,-11.15699 32.119496,-17.80804 65.823311,-32.64344 100.073731,-45.87465 53.8895,-20.81919 109.61744,-36.99528 166.41483,-47.58363"
     inkscape:connector-curvature="0" /><path
     id="path44"
     style="fill:#000000;fill-opacity:1;fill-rule:nonzero;stroke:none"
     d="m 682.31314,623.1864 c -4.74481,0.008 -9.48498,0.008 -14.22208,0.003 0.009,-0.63644 0.0246,-1.25747 0.0509,-1.87543 1.12957,-0.41452 2.22832,-0.90303 3.33169,-1.38691 -0.48542,-1.59958 -1.07871,-3.36097 -2.68754,-4.14997 -3.18529,-1.45472 -6.74813,-0.88146 -10.12297,-0.93694 -1.00474,-0.0431 -1.35609,-1.13727 -1.75522,-1.87079 4.45663,-1.29754 9.59131,0.003 13.57331,-2.78771 -1.46396,-3.47809 -5.62318,-3.93422 -8.74375,-5.03298 -0.16489,-2.40707 0.20958,-5.08845 -1.67971,-6.95308 0.46847,-0.88147 1.06947,-1.68433 1.76446,-2.40091 -0.40528,-0.94465 -0.77205,-1.91549 -0.88454,-2.94181 2.28688,-0.27122 4.64926,-0.14486 6.8899,-0.76126 -0.87992,-1.25131 -1.81378,-2.592 -3.2007,-3.30395 -1.54718,-0.40375 -3.37945,-0.20496 -4.58761,0.92615 -0.84757,0.85373 -2.17593,0.66418 -3.23769,0.94003 0.71041,-1.47322 1.99409,-2.80467 1.7244,-4.57068 0.0632,-1.10953 -0.75201,-2.49029 0.23115,-3.36405 0.21266,-0.24656 0.43457,-0.48387 0.66419,-0.71502 -2.52111,-6.30586 -5.54768,-12.3929 -8.26295,-18.614 -0.68268,-1.31603 -1.05868,-2.93872 -2.41787,-3.73235 0.44227,2.64593 1.38846,5.22868 1.30678,7.94704 -0.22653,0.009 -0.68112,0.02 -0.90919,0.0246 -1.7845,-3.6969 -3.43649,-7.46007 -4.87426,-11.30184 -1.00165,-2.42094 1.28521,-4.69395 0.37756,-7.11182 -1.60421,-4.62613 -3.58441,-9.21683 -6.54935,-13.1449 -1.41157,-1.98638 -3.97583,-2.94489 -5.00215,-5.2179 2.48413,-0.14794 4.85422,0.63336 7.29982,0.85989 1.32219,-1.08333 0.33286,-3.34555 -1.18351,-3.68612 -2.60123,-0.54706 -5.2857,-0.46384 -7.927,-0.56092 -0.86606,-2.00796 -1.47476,-4.32257 -3.13444,-5.83124 -2.07268,-0.72119 -4.33489,-0.67496 -6.48462,-1.00474 -0.68883,-1.84306 -1.47938,-3.69382 -2.8216,-5.16242 -1.1943,-1.16193 -2.8509,-1.52406 -4.29329,-2.21907 -1.81224,-2.22369 -3.47192,-4.63693 -5.79423,-6.37983 -1.91088,-1.64888 -4.35802,-2.83239 -5.65247,-5.08074 3.16217,0.55631 5.8004,2.61665 8.91788,3.33169 0.0616,-1.60267 -1.03094,-2.85552 -1.96942,-4.02515 -2.54884,-3.01424 -5.32885,-5.81735 -8.04259,-8.67594 -0.68421,-0.73507 -0.89379,-1.78913 -1.3114,-2.65826 1.10336,0.0416 2.22369,-0.0401 3.23459,-0.52396 -1.55335,-3.62448 -3.66762,-7.05479 -4.45508,-10.96435 -0.23578,-1.9756 -0.12791,-3.96968 0.0524,-5.9391 0.98317,-0.14023 1.98945,-0.29896 2.94951,-0.58713 -1.43624,-4.11606 -3.47192,-8.00098 -5.12235,-12.03383 -1.05715,-2.71219 -2.97417,-5.31806 -2.45023,-8.38931 0.45153,-0.73507 1.40388,-0.90458 2.15897,-0.56248 2.89866,1.12187 5.72644,2.59046 8.07187,4.66005 1.18813,1.19891 1.6304,2.91253 1.69975,4.55218 0.48387,5.23022 1.6643,10.35873 2.32385,15.56739 0.67189,4.20236 1.16039,8.44633 2.1374,12.59629 1.55951,5.06843 4.85729,9.32472 7.70665,13.71047 3.74622,5.72797 7.41693,11.5068 11.23096,17.18855 1.7506,2.84472 5.18245,3.74005 7.93626,5.29956 2.53343,1.25132 3.54589,4.06214 4.78332,6.40141 3.31011,7.02397 6.39832,14.15119 9.26924,21.36625 2.91408,7.12414 5.87284,14.2267 8.80386,21.34468 1.30061,3.2007 2.70603,6.36441 3.80785,9.64679 0.65803,1.97559 1.8554,3.71386 3.16218,5.32269 0.86297,1.03864 2.43019,1.75368 2.39321,3.33785 0.6087,3.3363 0.68729,6.81902 1.9386,10.01355 0.55631,1.40541 1.13111,2.80928 1.86618,4.14072 1.17734,1.84615 2.91715,3.30087 3.86488,5.31036 0.64569,2.58583 -0.0601,5.54921 1.29754,7.96554 0.99241,1.11878 2.36084,1.85847 3.51198,2.81389 -0.18646,0.39143 -0.37292,0.7921 -0.55322,1.18813 z m -37.40982,-51.30828 c -7.41077,-11.27719 -13.98169,-23.23089 -18.28113,-36.05989 -0.28355,-1.0032 -0.24348,-2.0588 -0.20187,-3.08358 0.61178,0.48389 1.24976,1.00938 1.52561,1.7691 3.48579,11.53454 9.24612,22.21997 15.25302,32.61416 1.58262,2.87555 3.51353,5.56925 4.79258,8.6066 -1.3638,-0.97085 -2.13432,-2.53035 -3.08821,-3.84639 z M 589.87193,429.09947 c -2.65056,1.14806 -5.24718,3.19761 -8.32305,2.55656 -2.90946,-0.5517 -5.75727,-1.40696 -8.63435,-2.07884 -2.05572,-0.58251 -4.30869,-0.89534 -6.03001,-2.26839 0.85989,-0.67342 1.91086,-1.10183 3.03581,-0.81982 4.27479,-0.0956 8.83622,0.79979 12.90296,-0.95081 2.01103,-0.68729 4.07754,-1.21894 6.08242,-1.9309 -1.13112,-1.29445 -2.98342,-1.33299 -4.52752,-1.76447 -2.27147,-0.376 -4.34568,-1.41003 -6.46921,-2.2391 -1.30833,-0.56094 -2.68908,-1.17272 -3.54127,-2.35931 2.5319,-0.0139 5.05147,0.26969 7.57875,0.39913 0.33593,-1.33761 0.34673,-2.9603 1.6643,-3.78321 1.41311,-1.13727 2.72761,-2.874 4.75405,-2.7353 0.81674,0.10633 1.5179,0.62102 2.24681,0.99703 2.39166,1.50867 4.91431,2.79079 7.46778,4.00819 1.99254,1.00013 4.32256,0.91999 6.48615,0.80288 4.18234,0.31437 7.45547,-2.94335 11.56846,-3.062 0.0339,0.17567 0.0971,0.51778 0.12944,0.69499 -0.8414,0.63182 -2.14665,0.90766 -2.50416,2.00795 -0.14485,0.36677 -0.26352,0.74124 -0.37756,1.12033 3.83407,0.72582 7.34298,2.95567 11.36504,2.66596 2.17591,0.25581 4.02823,-1.04635 6.0069,-1.69204 2.7877,-1.0818 5.75725,-1.58725 8.72218,-1.85848 -0.0524,0.30667 -0.10021,0.61333 -0.1464,0.92462 -5.36584,1.19121 -10.49589,3.45342 -14.86315,6.81132 -2.6521,1.5441 -5.31036,3.4827 -8.43862,3.79398 -2.2237,0.44536 -3.95889,-1.29137 -5.76651,-2.22985 -1.19891,-0.75818 -2.75997,-0.56555 -4.02976,-0.11246 -2.66444,0.7551 -5.13315,2.08345 -7.83609,2.70757 0.19879,-0.96622 0.61949,-1.81532 1.25901,-2.54269 1.73211,-2.00486 3.67224,-3.81402 5.45983,-5.76803 0.39143,-0.42687 0.60254,-0.97393 0.82291,-1.49633 -0.91999,0.10321 -1.85539,0.14022 -2.63515,0.67034 -4.81261,2.70449 -8.33384,7.28132 -13.42999,9.53122 z M 560.6742,336.42864 c -0.25118,-3.30857 -0.31899,-6.64488 0.16489,-9.93341 0.82445,-1.42699 2.28071,-2.32849 3.33323,-3.57209 -1.72594,-0.17414 -3.51969,-0.15873 -5.11002,-0.94157 1.28213,-1.85847 2.7199,-3.77396 4.83264,-4.72631 1.24514,-0.29741 2.5211,-0.52856 3.72156,-1.0032 -0.23577,-0.73198 -0.3683,-1.53024 -0.84139,-2.15281 -1.07564,-1.05714 -2.72453,-1.1758 -3.88646,-2.0927 -0.87068,-0.99089 -1.37921,-2.4117 -1.10954,-3.72928 0.87993,-2.37625 2.61512,-4.41347 3.04506,-6.95924 -4.38112,0.70117 -8.3662,3.11286 -12.84902,3.3625 -1.88314,0.3113 -3.60292,-0.62411 -5.17321,-1.51481 1.20353,-1.72287 3.74313,-2.18055 4.27633,-4.43198 -0.57481,-1.11725 -1.26364,-2.17747 -1.74444,-3.33785 1.62424,0.53936 3.0728,1.53947 4.82648,1.67663 -1.35918,-2.55502 -4.14843,-3.62757 -6.31048,-5.33501 1.12495,-0.87223 3.41336,-1.11109 3.33169,-2.85398 -1.08334,-1.12341 -2.67984,-1.6566 -3.69074,-2.83856 -0.81521,-1.10337 0.21111,-2.26375 0.70886,-3.24077 -0.42841,-0.87067 -0.82599,-1.75676 -1.11724,-2.68291 2.3855,-0.35444 3.68766,2.08038 4.95438,3.64297 1.12032,0.92615 2.66135,1.10491 4.00204,1.59649 0.20495,-0.81366 0.39141,-1.62577 0.58404,-2.43942 0.95081,-0.008 1.91086,0 2.86784,-0.0385 0.25273,-0.75663 0.41762,-1.54873 0.68576,-2.29766 1.4578,0.51471 2.7461,1.38229 4.0498,2.2052 0.26505,-0.1803 0.52857,-0.36214 0.79671,-0.54244 0.17259,-2.80466 -0.29126,-5.83739 -2.25606,-7.98711 -0.69037,-0.64568 -1.41466,-1.78604 -2.5057,-1.55027 -0.45152,0.0647 -0.89071,0.18955 -1.32682,0.3005 -1.1681,-1.58108 -2.45022,-3.08204 -3.93114,-4.37341 -0.91536,1.26518 -1.78605,2.55964 -2.67368,3.84022 -1.66584,-2.04801 -3.61523,-4.32718 -3.52584,-7.13338 1.071,0.5147 2.02335,1.56413 3.33476,1.34531 1.17888,-0.34828 2.21291,-1.25902 3.48425,-1.27905 1.75059,1.578 2.86475,3.91573 5.27183,4.64309 0.58404,-1.19582 1.108,-2.4194 1.65968,-3.6291 0.81366,0.67496 1.8107,1.2359 2.34389,2.18363 0.45153,1.28675 0.69655,2.64131 1.0479,3.96042 0.42532,10e-4 1.2775,10e-4 1.70436,10e-4 0.11558,-0.81983 0.25427,-1.63502 0.47926,-2.43019 3.77396,1.59804 6.32744,5.0268 8.81618,8.13659 1.02016,1.33606 0.21729,2.84164 -0.82753,3.80786 1.27597,1.30062 2.60279,2.56426 3.69845,4.02823 0.27739,0.35906 0.24656,0.83986 0.25274,1.27134 -0.10021,2.70296 -0.17106,5.41052 -0.30205,8.11656 -2.79233,-1.80299 -1.65968,-5.62473 -1.99254,-8.38161 -1.20507,-1.87696 -3.11132,-3.20071 -4.82955,-4.57376 -1.28984,-0.39141 -2.70296,-0.27892 -4.03131,-0.27892 -0.45615,-0.005 -0.94157,0.17414 -1.11571,0.6272 -0.33594,3.08512 -0.43457,6.20569 -0.23115,9.30314 0.90304,-0.58559 1.72902,-1.4686 2.84318,-1.64119 1.36073,0.47618 2.08655,2.01874 2.73685,3.21919 0.47773,0.67189 0.32824,1.6489 -0.43148,2.01874 -1.63194,0.89688 -3.99124,0.9277 -4.81723,2.89866 -0.38834,2.70603 -0.18646,5.47062 -0.33132,8.20131 -0.0309,1.33914 -0.20496,2.80928 0.3606,4.06984 1.04327,1.57955 2.53498,2.79079 3.92498,4.04826 2.02027,1.74443 3.92498,3.67841 6.23959,5.05455 0.80133,-1.88159 1.67817,-3.77089 3.34094,-5.06226 0.0847,1.06947 0.25272,2.18825 -0.31437,3.17142 -1.13727,2.47797 -2.12816,5.01756 -3.14985,7.54638 -0.27121,0.57326 -0.55631,1.29601 -1.23127,1.47784 -1.10338,0.17259 -2.20367,0.21266 -3.30549,0.29588 -0.67806,0.83677 -1.33916,1.68742 -2.02182,2.52265 -1.03711,0.14023 -2.11583,-0.0262 -3.10978,0.29588 -2.686,1.8523 -5.01756,4.15921 -7.62652,6.11476 z m -9.5759,109.17824 c -1.17888,3.3733 -2.66751,6.81748 -5.11927,9.47265 -0.2666,-2.09732 0.15257,-4.27016 -0.49159,-6.3151 -0.27583,-1.31449 -0.883,-2.51802 -1.41928,-3.73388 -0.24964,-0.0185 -0.75201,-0.0509 -1.0032,-0.0647 -1.17271,5.07458 0.14331,10.25241 0.31436,15.37169 -0.14639,1.0864 0.69346,2.75379 -0.50545,3.47808 -1.97404,1.52868 -4.53367,2.87092 -5.25796,5.44904 -0.75972,2.04801 -0.99087,4.24397 -1.05252,6.41836 -0.39141,4.15151 2.25452,7.74979 2.56735,11.81346 0.25734,4.02977 -0.53627,8.02255 -0.93694,12.01842 -1.27135,10.90118 -3.03273,21.73456 -4.22548,32.64345 -1.08334,7.19964 -0.61025,14.50717 -0.63798,21.76075 -0.13407,2.08963 0.4962,4.25476 0.0494,6.32126 -1.05252,1.97868 -2.5319,3.79245 -4.32412,5.14085 -0.87838,0.69346 -1.85692,-0.34364 -1.89699,-1.23898 -0.0401,-1.48247 0.11246,-3.26388 1.45935,-4.18079 0.65648,-0.507 1.73827,-1.51945 0.88608,-2.31615 -1.04943,-0.0431 -1.57646,1.03402 -2.26684,1.63964 -0.62257,-0.41145 -1.21586,-0.85681 -1.83227,-1.27134 -0.0693,2.50262 0.008,5.01448 -0.20496,7.51864 -0.33593,0.96622 -1.39308,0.71041 -2.15126,0.53473 -0.009,-3.11286 0.20495,-6.24113 -0.0678,-9.3355 -0.10021,-1.2097 -1.25901,-1.71362 -1.7506,-2.68446 -0.28355,-2.60895 -0.15411,-5.23485 -0.15411,-7.84688 -0.99858,-0.10482 -1.99254,-0.20187 -2.98187,-0.29279 0.003,-0.62873 0.017,-1.24669 0.037,-1.85847 2.68447,-1.40387 4.66776,-3.87567 7.53868,-4.95285 0.95235,-0.48695 2.27763,-0.62718 2.80311,-1.67354 1.46244,-4.44122 1.71825,-9.14442 2.21138,-13.76131 0.78283,-8.02102 1.80915,-16.022 2.27454,-24.07075 0.12483,-3.67071 0.77668,-7.48628 -0.61641,-11.02292 -1.10954,-2.64748 -2.2052,-5.31807 -2.83856,-8.12889 1.14036,-0.78437 3.07896,-1.01245 3.48887,-2.54885 -0.0817,-2.68753 -1.64272,-5.12851 -1.54564,-7.8438 0.13714,-5.27798 0.75818,-10.53132 1.14652,-15.79391 0.28508,-3.0204 0.37447,-6.067 0.88608,-9.06274 0.25582,-1.31758 0.97239,-2.58738 1.99871,-3.44727 1.33144,-0.601 2.90482,-0.4207 4.23934,-1.05713 -1.12957,-2.14048 -2.9079,-3.83714 -4.25938,-5.82199 2.58429,-0.49774 5.02527,0.61025 7.54946,0.96006 -0.57326,-1.45318 -1.53485,-2.82931 -2.98496,-3.50119 -4.33335,-2.25452 -9.2646,-2.69217 -13.93698,-3.86797 0.42686,-0.85835 0.977,-1.96634 2.22678,-1.6489 2.75996,-0.36675 5.55537,0.20959 8.02101,1.47169 1.12494,0.57479 2.3747,0.22498 3.54588,0.0494 -0.0139,-0.77668 0.15256,-1.57338 -0.057,-2.31923 -0.4207,-1.06023 -1.40387,-1.74907 -2.17747,-2.53036 -1.36534,-1.23128 -2.64439,-2.64902 -4.39344,-3.33015 -5.11465,0.54861 -9.77932,2.90329 -14.43474,4.93435 -0.92308,0.4808 -1.88005,-0.49158 -2.08346,-1.34223 -0.61949,-3.22227 -0.48851,-6.53085 -0.56864,-9.79164 -5.33964,7.69893 -10.11835,15.90179 -16.80637,22.55746 -3.96814,4.07754 -8.83776,7.9116 -14.7337,8.36466 -0.27738,-1.39616 -0.42378,-2.81853 -0.61487,-4.21931 -1.97251,0.59791 -3.28699,2.43326 -5.21636,3.11285 -1.19582,0.4315 -3.15138,-0.45151 -3.81094,1.01245 -1.80762,3.04198 -0.39142,6.47229 -0.22962,9.71306 -2.34389,-0.83369 -3.63372,-3.07896 -4.98366,-4.99136 -1.08949,-2.3778 -0.74585,-5.41669 1.12803,-7.30599 4.66929,-5.21173 9.93958,-9.8425 15.00801,-14.65973 0.9508,-1.20199 2.54576,-0.99549 3.87413,-1.32065 1.3376,-0.33903 2.47333,-1.3299 3.8587,-1.49171 1.25132,0.24194 2.39784,0.85836 3.63373,1.17426 1.16347,-1.28059 2.75689,-2.22369 3.6137,-3.76163 0.24348,-0.9693 0.14947,-1.98175 0.10633,-2.97109 1.55181,-1.33299 3.193,-2.592 4.55525,-4.12532 1.30063,-1.81686 1.34069,-4.1777 1.67201,-6.30893 -0.90612,-0.074 -1.86618,-0.28047 -2.73839,0.057 -1.54256,0.59946 -3.23614,1.41928 -4.93435,0.9878 -1.36843,-0.32979 -1.60883,-1.93861 -2.08346,-3.04815 1.06485,-0.51778 2.13586,-1.02785 3.20995,-1.52561 0.29279,-1.25747 0.33748,-2.63822 0.99242,-3.78166 1.06022,-0.86914 2.31769,-1.47014 3.40411,-2.30998 -1.94015,0.63952 -4.16229,1.14497 -6.08857,0.23422 -0.96931,-0.40683 -1.19429,-1.53177 -1.6489,-2.36546 -0.52548,-1.26518 -2.02644,-1.98791 -1.95863,-3.49965 -0.1803,-3.24077 0.53935,-6.48154 0.2404,-9.72385 -0.14332,-0.75201 -0.4207,-1.62424 -1.14652,-1.99562 -1.38384,-0.30205 -2.79388,-0.39296 -4.16693,-0.73199 -0.61178,-2.28842 -0.0523,-4.66774 0.88763,-6.76662 1.04636,-1.08641 2.3963,-1.81686 3.69538,-2.56426 1.14034,-0.62257 2.30228,-1.40387 3.67071,-1.34531 2.81544,1.91549 4.49515,4.98675 7.07328,7.15034 2.62744,1.85847 5.13005,4.1885 8.46174,4.63385 0.47464,4.21161 0.96006,8.46174 0.65032,12.7088 -0.39142,4.8126 -4.7109,7.87307 -7.19811,11.63778 2.35776,-1.55335 4.57528,-3.31781 7.02706,-4.73555 0.81365,1.5441 0.62718,3.33939 0.96775,5.00831 0.17259,1.11571 0.58405,2.16206 0.96622,3.21765 2.05727,0.26814 4.17771,0.56864 6.23805,0.10483 4.03286,-0.69037 8.19053,-0.4361 12.2203,0.16643 3.30703,1.37151 4.36725,5.23947 7.11026,7.31522 2.38243,1.75523 3.72157,4.58146 4.21007,7.43851 0.28047,2.33311 0.225,4.7032 0.5748,7.03168 0.52703,1.41928 2.25452,2.32848 2.0357,4.03593 0.17105,1.38847 -0.15411,2.78309 -0.017,4.17155 0.71349,1.7768 2.82007,3.24847 2.22369,5.37508 z m -28.51967,130.79877 c -2.88941,0.18337 -5.78807,0.19879 -8.68056,0.20033 -0.10021,1.83844 0.17875,3.74621 -0.20034,5.56616 -0.73045,1.48092 -2.40707,2.66289 -1.8184,4.58299 0.63489,0.78285 1.75522,1.27597 1.87234,2.39475 0.0971,1.91395 0.41761,3.97276 -0.19726,5.84201 -0.32977,0.69038 -1.04326,1.07102 -1.63348,1.51175 0.0601,1.73211 -0.3606,3.61832 0.44073,5.2518 0.96006,2.5812 2.54269,4.98982 2.94182,7.75596 -3.51508,0.24193 -7.11027,0.51778 -10.59144,-0.11713 0.97238,-4.36879 4.20853,-8.08111 3.74006,-12.77043 -0.75511,-0.51008 -1.72903,-0.96931 -1.95093,-1.94015 -0.24349,-2.00333 -0.24349,-4.03747 -0.0104,-6.03464 0.25119,-0.81212 1.10337,-1.16192 1.75831,-1.57955 0.0431,-0.90612 0.0893,-1.80299 0.13869,-2.69524 -0.69346,-0.45151 -1.6828,-0.78592 -1.84307,-1.70591 -0.32515,-2.91407 -0.27584,-5.86667 -0.0878,-8.78536 0.13253,-0.97855 1.06021,-1.5179 1.79837,-2.02336 0.12482,-2.82777 0.2142,-5.65863 0.11866,-8.48486 0.75818,-2.08654 -2.53499,-2.20058 -1.97097,-4.21777 -0.0771,-2.65672 -0.26659,-5.3643 0.22808,-7.98095 0.7628,-0.73198 1.78912,-0.98934 2.79078,-1.2097 0.16489,-3.05122 -1.10029,-5.86204 -1.2621,-8.8732 1.21895,-0.70116 2.77076,-1.54564 4.18542,-0.87068 1.68742,0.81366 1.57492,3.21303 0.96776,4.71861 -0.9878,1.47784 -0.87222,3.3209 -0.9955,5.03143 1.01861,0.30359 2.65209,0.48851 2.90636,1.79991 0.43765,5.33964 -0.17105,10.7101 0.24502,16.0559 0.0956,0.67343 0.4731,1.26056 0.79363,1.85693 1.01708,-0.0632 2.03877,-0.11711 3.06818,-0.16797 -0.63645,-3.16526 -1.56722,-6.49232 -0.64569,-9.6884 0.34364,0.0524 0.69037,0.11096 1.04172,0.17568 0.10321,2.07422 0.17723,4.16846 0.41763,6.2396 0.76434,0.0462 1.578,0.15718 2.35776,0.23115 0.0925,3.30549 0.0817,6.61714 0.0771,9.93034 z M 489.46518,392.93479 c -1.58263,-0.44843 -1.45319,-2.71682 -0.45923,-3.7231 2.60433,-1.03094 2.88017,3.97583 0.45923,3.7231 z m 46.32925,-102.24518 c 1.40079,2.86167 2.66904,5.82506 4.74171,8.28761 1.76601,2.10503 0.56556,5.12235 1.81841,7.41539 1.25593,1.32527 3.2608,1.33761 4.92972,1.69974 -0.14022,1.4578 0.22807,3.01424 -0.22499,4.43198 -0.67804,1.55642 -2.85396,0.92769 -4.11606,1.32373 -1.13574,-2.56426 -1.4686,-5.40282 -2.55502,-7.9871 -0.65955,-2.26992 -3.26079,-3.29933 -3.90185,-5.56617 -0.52549,-3.16526 -0.97702,-6.38599 -0.69192,-9.60518 z m 10.0644,-39.45013 c 0.41299,-6.9007 -0.0956,-13.82604 0.22345,-20.73137 0.54398,-3.07278 1.19429,-6.13171 1.41466,-9.2569 0.30358,-1.97251 0.15872,-4.6508 2.20982,-5.76805 0.35135,1.28368 0.54706,2.60279 0.80904,3.90495 0.91382,0.0678 2.73993,0.20188 3.6553,0.26968 2.42711,0.69654 3.69845,3.06971 5.40281,4.73094 1.10338,1.2174 2.93873,0.92768 4.29329,1.71361 1.49016,1.28367 1.74136,3.36867 2.39321,5.10541 2.35621,6.66491 3.2762,13.71354 4.76329,20.59728 0.80904,3.63064 1.18659,7.44313 2.91253,10.79794 1.69204,3.34863 3.48425,6.6495 5.18554,9.99659 2.08807,4.3426 3.15909,9.10128 5.28107,13.43154 0.6873,1.31603 1.39154,3.08975 0.41146,4.44431 -1.40079,1.75368 -2.08347,3.88182 -2.40862,6.0747 -0.45152,-3.41337 0.12636,-6.84059 -0.0555,-10.25703 -0.33286,-1.70745 -1.80299,-2.79542 -2.61049,-4.25014 -0.80441,-2.50416 -0.95543,-5.28416 -2.5735,-7.47395 -1.18812,-1.71207 -2.15281,-3.97892 -4.27633,-4.69703 -3.86643,-1.51021 -6.6418,-4.73402 -10.18153,-6.77741 -1.96788,-1.202 -4.4181,-0.695 -6.56475,-1.15577 -0.3945,-0.49004 -0.76434,-0.9878 -1.11107,-1.50096 -3.08821,-0.55168 -6.21956,-0.1202 -9.16907,0.84757 -1.57955,0.89995 -2.74148,2.33619 -4.11915,3.49042 1.05406,-4.60457 3.70152,-8.75917 4.11452,-13.53633 z m 4.68933,-66.58597 c 2.6413,-0.80596 4.86346,1.59649 6.39061,3.41644 0.42994,1.42698 0.45768,2.93872 0.59946,4.41656 -1.68742,0.3868 -3.40411,0.14332 -5.01603,-0.42532 0.66726,-1.31757 1.76293,-2.3593 2.37934,-3.70616 -1.88467,-0.51316 -3.84331,-0.7551 -5.66942,-1.46089 0.24811,-0.76125 0.27893,-2.06188 1.31604,-2.24063 z m 10.61301,13.72587 c 1.00166,0.80286 0.5147,2.34081 0.94002,3.41336 1.02786,2.80311 4.54756,4.45663 4.30869,7.75596 0.29126,3.15909 0.51316,6.33359 1.0556,9.46494 0.36522,1.82611 1.4686,3.39333 2.59509,4.83573 3.77549,4.76791 7.60647,9.4973 11.51758,14.15273 2.22061,2.67984 4.66776,5.17167 6.67724,8.02102 3.2269,4.68778 6.75584,9.22455 9.38328,14.28681 0.57326,1.52406 0.28972,3.21303 0.46539,4.80181 -0.0847,4.15613 1.71823,7.94859 2.8139,11.86586 1.13265,4.10682 2.74456,8.06263 3.94964,12.14017 0.3344,3.65992 -0.091,7.33217 -0.17722,10.99518 -0.92924,-3.41952 -1.52715,-6.93305 -2.7461,-10.26936 -1.58109,-3.23923 -4.47666,-5.62318 -5.89594,-8.9595 -1.02016,-3.47654 -1.45318,-7.12105 -2.82778,-10.49126 -0.68729,-1.50558 -0.9616,-3.14831 -1.19737,-4.771 0.51624,-0.21575 1.04019,-0.42995 1.56721,-0.63491 0,-1.1496 0.34673,-2.31769 0.0893,-3.45343 -0.46848,-1.38999 -1.3931,-2.56425 -2.19596,-3.76317 -3.62603,-5.2518 -7.03939,-10.66232 -10.99981,-15.67064 -3.93268,-5.14546 -7.94858,-10.23392 -11.56536,-15.60901 -1.83228,-2.65517 -4.5306,-4.61226 -7.53714,-5.72026 -0.0139,-2.592 0.63183,-5.12544 0.68268,-7.71281 -0.0231,-0.97393 -0.45152,-2.20058 -1.578,-2.30383 -1.80608,-0.16488 -3.57363,0.60562 -5.39204,0.37447 0.074,-0.73661 -0.10171,-1.54256 0.24348,-2.21752 1.37768,-0.84757 3.06663,-0.92462 4.61382,-1.30063 -0.1541,-0.31591 -0.47155,-0.94773 -0.62874,-1.26364 -3.25617,-0.0401 -6.51081,0.75665 -9.77007,0.37447 0.17722,-1.34069 0.28046,-2.9603 1.52253,-3.80787 1.60574,-1.10182 3.22227,-2.87554 5.372,-2.48565 1.20815,-0.0104 2.82007,0.88454 3.55667,-0.48543 -1.04173,-0.5224 -2.04184,-1.21895 -3.20994,-1.42082 -1.69513,-0.16797 -3.21765,0.71812 -4.82957,1.0556 0.005,-1.34686 0.73662,-2.91561 2.23141,-3.04197 2.4117,-0.17414 5.00986,0.34826 6.96541,1.8446 z m 50.68109,119.78046 c 1.15731,0.42533 1.00166,2.0172 1.39616,2.92332 -1.61036,0.28047 -3.31474,0.16027 -4.72015,-0.72274 -1.11107,0.8152 -2.21752,1.64581 -3.40719,2.33927 -1.48863,0.63644 -3.23306,0.14948 -4.70473,0.79979 -1.01245,1.45009 -0.62412,3.49811 -0.79672,5.14854 -0.0309,1.33145 1.16348,2.1297 2.10812,2.85243 1.06947,0.97393 2.41786,1.75832 3.21611,3.00499 0.43148,2.93565 -0.50853,5.80041 -0.70117,8.71294 -0.18799,2.50879 -0.0246,5.03143 -0.27892,7.53868 -0.14947,1.00628 -1.22357,1.42852 -1.87234,2.06188 1.02479,4.74943 2.62744,9.354 3.59521,14.12037 0.2743,1.63657 0.53473,3.37946 0.037,5.00216 -1.26518,3.96967 -2.75843,7.86229 -4.1361,11.79343 -0.89841,2.26221 -1.55644,4.63539 -2.7122,6.78974 0.58559,-3.7755 1.49787,-7.49398 1.98638,-11.28336 0.40221,-3.45959 -0.16643,-6.92226 -0.30975,-10.37569 -0.89378,-0.0154 -1.81995,0.14794 -2.67213,-0.13715 -1.35918,-1.15268 -1.61807,-3.0204 -2.15281,-4.60149 -2.53035,-8.52955 -5.23638,-17.00671 -7.8669,-25.50543 -0.56094,-1.29754 -0.60562,-2.99575 0.44073,-4.06214 1.21124,-1.1234 3.15446,-0.60099 4.36725,0.27276 1.34377,1.68896 1.20354,4.08371 2.33157,5.89749 1.08333,0.61641 2.36547,1.48555 3.68149,1.22357 1.38692,-0.46693 1.04944,-2.12506 0.83524,-3.25155 -1.48401,-6.41528 -2.94027,-12.83516 -4.45047,-19.24427 -0.53935,-2.41169 -1.24361,-4.82648 -1.14498,-7.32139 2.6182,1.78913 4.85884,4.09449 7.67736,5.59698 -1.06484,-2.05726 -2.48258,-3.91573 -3.50273,-5.99148 -1.19584,-3.26234 -2.00025,-6.6834 -2.46564,-10.12605 2.30691,3.20687 3.35327,7.1411 5.79732,10.25704 2.84473,2.96492 6.5817,4.93126 10.42501,6.28736 z m -149.96751,199.1492 c -0.50854,1.25285 -0.77976,2.57042 -1.01092,3.90649 -1.69666,0.45151 -2.31924,2.27917 -3.7493,3.12826 -1.00783,0.78592 -2.20674,1.60113 -2.4718,2.95569 -0.17722,1.74289 0.25735,3.45959 0.30512,5.19786 0.24811,3.28237 -0.15256,6.55704 -0.48696,9.81938 -0.14178,1.45318 -0.37293,3.00499 -1.27905,4.20545 -1.45934,-3.26697 -1.23743,-6.92072 -2.085,-10.33101 -0.62565,-1.39307 -1.52561,-2.8478 -2.95259,-3.52277 -1.90625,-0.75664 -3.66609,0.70579 -4.97288,1.89546 -2.01103,1.89083 -3.99279,3.82173 -5.80656,5.90365 -3.04044,4.11144 -5.64323,8.52492 -8.28453,12.89834 -3.05585,5.02218 -4.96055,10.78098 -8.99494,15.17135 -1.55951,1.202 -3.40565,1.98637 -5.16242,2.86938 1.86617,-1.57492 3.55052,-3.42107 4.61998,-5.63089 0.73353,-1.97712 0.3606,-4.23318 1.38383,-6.11631 2.17747,-4.06984 4.6015,-8.00252 6.987,-11.95062 2.27917,-3.63989 4.43505,-7.4046 7.33834,-10.59297 4.4366,-4.94977 8.88244,-9.89027 13.36527,-14.79843 1.10183,-1.22973 2.2653,-2.43635 3.08667,-3.87875 0.38834,-1.05559 0.2481,-2.20828 0.2404,-3.30702 1.00165,-0.78439 2.18516,-1.43932 2.82007,-2.59816 1.29599,-2.15128 1.63656,-4.70628 2.4872,-7.03323 0.36676,-1.03864 2.1975,-0.89379 2.42711,0.15873 0.57326,1.84768 0.0431,4.05288 1.31295,5.65863 0.72274,0.9693 0.38217,2.24064 -0.13253,3.21765 0.67805,0.73661 1.78912,1.64426 1.01554,2.77384 z m 224.66541,103.14513 c -1.38692,-0.70424 -2.78,-1.39616 -4.17616,-2.05264 -0.0925,-2.53189 -0.0104,-5.11464 -0.9539,-7.51246 -1.68125,-4.29945 -4.22702,-8.17666 -6.56782,-12.12476 -1.82149,-2.72144 -0.50854,-6.15792 -1.34224,-9.12746 -0.99241,-2.08655 -2.66442,-3.76317 -3.57979,-5.88824 -7.26129,-17.36423 -14.55802,-34.71766 -21.99191,-52.00792 -1.21586,-2.5396 -2.0249,-5.28723 -3.59365,-7.64654 -1.14345,-1.31603 -3.4673,-0.70271 -4.38422,-2.31616 -3.0019,-5.1655 -6.59711,-9.96577 -9.4634,-15.21295 -3.06509,-5.15317 -5.5261,-10.64075 -7.72206,-16.21308 -1.77217,-4.39499 -2.60894,-9.07662 -3.45034,-13.71662 -2.05419,-11.92288 -3.53819,-23.9336 -5.48604,-35.87497 3.74315,0.26814 7.49707,0.72429 11.2587,0.3945 0.94619,-0.13252 2.07884,-0.20341 2.76459,-0.99396 1.8708,-2.0588 2.0172,-5.40898 4.5568,-6.88219 2.17284,-1.00629 4.61998,-1.33453 6.69728,-2.56888 2.83394,-3.20995 3.00344,-7.99019 6.16408,-11.00289 1.43469,-1.02632 3.05893,-1.73211 4.57683,-2.62128 -0.92615,-1.43161 -2.60432,-2.02952 -4.24243,-2.15126 -5.60623,-0.63645 -11.40355,0.0292 -16.65535,2.13585 -2.90174,1.12341 -6.08087,0.82753 -9.07815,0.29279 0.1017,-0.92461 -0.28972,-2.16975 0.67188,-2.70757 1.10953,-0.71349 2.45331,-0.87221 3.70769,-1.21587 0.005,-0.38525 0.0124,-0.76588 0.0231,-1.14652 -2.60741,-1.33144 -5.65401,-1.25747 -8.49564,-1.1311 -3.73236,0.17875 -7.04247,2.10503 -10.39264,3.55205 -0.53474,-6.10553 -1.15886,-12.24033 -0.68114,-18.37051 0.30667,-3.45497 1.94168,-6.54164 2.94644,-9.80706 3.46421,-10.26628 5.81272,-20.93938 6.54008,-31.76043 0.16798,-4.59841 -0.68884,-9.13826 -1.10953,-13.69814 -0.12945,-2.37934 0.0755,-4.91431 1.47784,-6.92535 3.5536,-5.92214 10.01509,-8.97027 15.17289,-13.22658 0.67497,-0.57172 2.06805,-1.72131 1.18966,-2.67675 -1.41157,-1.34377 -3.10361,-2.36855 -4.46125,-3.77088 -4.74018,-4.84189 -9.07507,-10.05515 -13.33445,-15.32082 -1.38692,-1.82149 -3.02195,-3.54435 -3.69999,-5.78654 -0.94619,-3.23614 -1.49017,-6.57245 -2.39167,-9.81938 -0.61178,-2.37009 -1.70898,-4.57992 -2.22677,-6.97312 -1.28213,-5.34118 -2.45793,-10.70701 -3.90186,-16.0035 -0.56556,-1.87696 -1.14807,-3.80632 -2.39937,-5.35813 -9.36479,-10.81643 -17.94057,-22.28163 -26.79682,-33.51105 -0.47617,-0.73969 -1.24668,-1.34222 -1.42544,-2.23447 -0.40374,-3.76626 -0.37601,-7.56025 -0.76589,-11.32959 -0.16488,-3.08204 -3.33168,-4.64772 -4.6508,-7.18115 -0.33749,-1.10029 -0.40683,-2.26377 -0.65185,-3.38255 -1.33452,-0.58558 -2.67983,-1.15114 -4.01898,-1.72748 -0.009,-2.0511 0.81212,-4.32411 -0.16952,-6.26425 -0.7366,-1.45319 -1.08949,-3.04043 -1.48708,-4.60611 -0.37139,-1.48246 -1.63656,-2.51495 -2.23911,-3.87721 0.2404,-2.03261 2.07268,-3.68458 1.59496,-5.84972 -0.39603,-0.601 -1.09412,-1.18504 -1.85385,-1.03864 -1.3114,0.77975 -2.45947,1.78913 -3.61986,2.76613 -1.57029,-1.2097 -3.04505,-2.5319 -4.47974,-3.8957 -1.41004,0.96622 -2.84626,1.97867 -3.74622,3.46576 1.00474,1.44239 2.52573,2.8925 2.30844,4.82185 0.0447,2.06959 -2.12352,3.26234 -2.17591,5.33501 0.0431,1.94015 -2.08346,2.1898 -3.15601,3.31165 -0.94619,2.14203 -0.79979,4.53678 -1.17272,6.81132 -0.28509,3.43032 -3.26696,5.76496 -4.12223,8.98877 -0.59021,4.92819 -0.59329,9.9288 -1.71978,14.78456 -1.48862,8.27066 -4.66158,16.1499 -8.63434,23.52368 -1.3114,2.4718 -1.86001,5.25026 -2.53498,7.94088 -2.02952,9.00419 -3.30702,18.16248 -5.44443,27.14663 -5.83892,2.03723 -11.23866,5.46292 -15.29309,10.16457 -6.83442,7.7652 -9.67452,18.31657 -9.70843,28.49963 -1.1835,1.67971 -3.01269,2.82778 -4.04518,4.64002 6.61253,3.99278 13.30055,7.99173 19.05935,13.18035 2.28071,2.2052 4.67854,4.38883 6.26117,7.18116 2.42094,4.22701 3.73543,9.3016 2.52727,14.13116 -3.98816,-1.86927 -7.03783,-5.39204 -11.22941,-6.91919 -2.45331,-1.01861 -5.17167,-0.2666 -7.56487,0.59484 -3.08358,0.65339 -6.38291,-0.26506 -9.39715,0.83985 -1.92935,0.73815 -3.15909,2.51957 -4.44739,4.03593 -1.89699,2.27148 -3.44418,4.82494 -5.48141,6.9762 -2.64284,2.21445 -6.03617,3.78938 -7.74825,6.94231 -2.49646,5.66633 -2.12044,12.30968 -0.0771,18.05306 2.04339,5.90673 7.34142,10.6053 13.56868,11.55457 1.22665,0.45306 3.03427,0.18184 3.82635,1.46859 1.33915,2.00025 2.60279,4.05443 3.8803,6.09782 2.00795,3.06972 3.08512,6.75892 2.96183,10.43272 -0.19416,0.87067 -0.24347,2.09732 -1.20815,2.50107 -3.15755,1.56567 -6.53701,2.60895 -9.79627,3.93114 -3.00499,1.23898 -6.13789,2.2653 -8.83314,4.12686 -6.78665,4.6847 -14.04177,8.78689 -21.83472,11.54686 -4.61844,1.59804 -9.42796,2.94027 -14.35923,2.83549 -16.88496,-0.15719 -33.99029,-2.01874 -49.9337,-7.85458 -6.45687,-2.14203 -12.88139,-5.18401 -19.84217,-4.85268 -3.60908,-0.0601 -7.18424,1.04481 -10.19694,3.00652 -4.57837,2.79542 -7.88386,7.10565 -11.30955,11.12772 -1.13882,1.21124 -2.35776,2.70295 -4.15306,2.81853 -10.45736,0.95543 -20.35225,5.14393 -29.16227,10.70547 -6.37983,4.0837 -12.47765,8.69752 -17.74639,14.16043 10.92275,0.0709 22.09977,1.63349 31.9885,6.49695 2.81083,1.42698 5.86205,2.80774 7.62497,5.56924 1.59804,2.42249 1.27443,6.03772 4.0945,7.59569 3.59212,0.81366 7.4308,0.70888 10.88422,2.13741 -2.97263,2.80465 -6.62947,4.84342 -10.35873,6.4692 -2.86476,0.30666 -5.60932,-1.0371 -8.45713,-1.2174 -0.44844,1.70898 -0.2481,3.88491 1.56259,4.73401 2.63053,0.62874 5.38896,0.33131 8.0688,0.41453 4.49053,-0.11711 8.97028,0.24811 13.45927,0.24657 3.06355,0.0616 6.17179,0.14485 9.15366,0.93848 -2.55347,5.94988 -8.31689,9.63292 -13.36836,13.28976 -3.48579,2.6521 -7.4123,4.94205 -9.93341,8.62663 2.59816,-0.42377 4.99907,-2.24218 7.73284,-1.48862 3.35018,1.60266 6.12093,4.16075 9.0535,6.39678 3.3471,3.35634 5.0715,7.88694 7.07791,12.09855 2.74147,6.11169 5.02834,12.41139 7.54484,18.61554 1.19891,3.0281 2.33464,6.19644 4.58761,8.62663 0.72582,0.74739 1.60729,1.57338 2.72761,1.52406 7.3368,-0.51623 14.67051,-1.1311 22.02118,-1.44239 1.37151,-0.20187 2.70296,0.18492 3.99895,0.5825 -0.93539,1.16656 -2.03106,2.41479 -3.58441,2.65826 -4.30407,0.70888 -8.57424,-0.87529 -12.88602,-0.48542 -4.94205,0.34366 -9.93958,1.22049 -14.47635,3.287 -4.72015,2.39321 -9.05812,5.45984 -13.28051,8.63743 -9.2338,6.97003 -18.3628,14.08955 -27.79694,20.79145 -5.97761,3.90495 -11.88127,8.45558 -18.9299,10.24162 -1.9648,0.54861 -4.03901,0.45152 -6.00843,0.97855 -2.28072,0.81057 -4.29483,2.18671 -6.46767,3.22997 -3.2685,1.78913 -7.12568,1.63812 -10.72396,1.9648 -2.78462,0.31284 -5.89594,0.0246 -8.32922,1.65352 -2.02798,1.55027 -2.44868,4.13302 -3.37484,6.35518 -0.8907,2.41324 -2.13585,4.66467 -3.24693,6.98082 -0.12944,0.3945 -0.50391,0.86297 -0.32053,1.32065 0.61025,1.6905 1.86617,3.47654 3.80941,3.66764 2.88479,0.10633 5.77728,-0.12945 8.62046,-0.62567 3.92498,-0.66109 7.95322,-1.42697 11.38044,-3.56438 3.15293,-1.97096 5.89132,-4.5645 9.2338,-6.23189 3.11287,-1.29599 6.62022,-0.70115 9.79781,-1.65659 1.01399,-0.81674 1.6828,-1.97096 2.57812,-2.9002 4.74789,-5.54613 11.33113,-9.04579 17.85736,-12.05849 13.93082,-6.17178 28.83557,-9.86098 43.79889,-12.51462 6.29969,-1.10337 12.21105,-3.65993 17.88508,-6.51698 4.15151,-2.13432 8.94409,-1.96634 13.46544,-2.45176 2.37317,-0.38372 5.15472,-0.0139 7.16113,-1.59496 4.11606,-2.8478 7.78832,-6.34901 12.22646,-8.72064 0.42224,-0.19262 0.89225,-0.51932 1.38537,-0.38679 0.72275,0.52548 1.13882,1.38075 1.89854,1.86925 2.89404,-0.32361 5.62318,-1.50095 8.51722,-1.85076 2.46102,-0.5224 4.22548,2.13893 4.33952,4.29328 -2.16976,2.24681 -5.68637,3.06664 -7.15804,6.0069 1.22049,0.64415 2.53189,1.10645 3.89724,1.34532 2.59816,0.1017 5.20248,-0.4207 7.80065,-0.057 3.38561,0.29587 6.856,1.76447 8.91635,4.55834 1.04018,1.16656 0.45768,2.874 0.10945,4.24089 -0.90766,2.29458 -0.68884,4.91586 0.14331,7.20581 1.10491,2.22062 3.39333,3.42106 5.53536,4.44738 2.86937,1.28522 5.88978,2.37164 8.32458,4.43506 -1.29137,3.48734 -4.33643,5.98379 -5.62472,9.48345 -0.83215,1.89545 -0.61949,3.99432 -0.28047,5.98686 6.37983,0.35443 12.78123,0.6087 19.09479,1.67663 12.48382,1.92165 24.94759,6.00998 35.06285,13.78597 3.21611,2.29921 5.83893,5.28109 8.63742,8.04568 1.39617,-3.1329 2.43327,-6.41528 3.43031,-9.69611 3.12211,-10.79639 5.10849,-21.90715 6.26733,-33.07955 0.48388,-5.53997 1.27751,-11.1046 0.92923,-16.67539 -0.5825,-5.32577 -2.38395,-10.41421 -3.569,-15.61515 -3.22226,-13.01701 -5.44904,-26.4393 -4.5645,-39.88471 0.14331,-1.34069 0.0508,-2.80158 0.8229,-3.96966 0.78901,-1.17889 1.74444,-2.23757 2.81699,-3.16218 6.01615,-5.30111 12.99389,-9.31856 19.6326,-13.75823 1.23899,-0.80596 2.45485,-1.84769 2.89866,-3.30858 0.43457,-1.17426 0.32516,-2.49645 0.93233,-3.60599 2.78924,-3.01886 6.58786,-5.02064 9.0504,-8.35541 2.75227,-6.3151 1.78605,-13.44695 0.40067,-19.9778 -0.61795,-2.29304 -0.89379,-4.83726 -2.57042,-6.66183 -4.82185,-5.80502 -9.9026,-11.39123 -14.75373,-17.17468 1.55797,0.38989 3.10824,0.79979 4.66159,1.21895 0.84293,-1.45318 1.58879,-3.24385 3.37792,-3.69382 1.64581,-0.27277 2.90944,0.91074 4.02051,1.90932 3.33478,3.16988 5.77421,7.12414 8.13814,11.03525 3.6368,6.18874 6.73272,12.66873 10.19848,18.94993 1.93397,3.78167 2.95413,7.93318 4.23317,11.96295 1.41159,4.57528 2.49954,9.26307 4.22703,13.73974 1.77833,4.23318 5.35813,7.2351 8.42167,10.50822 1.55181,1.46397 1.52254,3.68304 1.8446,5.63089 0.1803,0.6611 0.0292,1.76139 0.77976,2.18516 1.60729,1.32682 4.22548,2.54886 3.93114,5.03914 0.2404,1.90779 -0.0185,4.1284 1.25594,5.74339 1.94939,2.89866 4.27325,5.52148 6.49694,8.21519 6.86987,8.05644 13.78135,16.08979 21.02877,23.81184 3.77396,5.80194 7.74979,11.73333 9.42489,18.54465 0.87838,1.29291 2.51495,1.74597 3.58441,2.84626 0.80441,0.96777 -0.017,2.2576 -0.31283,3.27159 -1.49632,2.59045 -4.03131,4.56143 -4.93126,7.49707 -0.62566,2.70448 -0.70888,5.49219 -0.96931,8.25216 -0.97238,0.35443 -1.94168,0.71503 -2.90174,1.08796 0.20496,3.87721 0.2404,7.75442 0.32824,11.6347 14.42241,0.12791 28.84483,0.0231 43.26724,0.0555 0.003,-4.32101 0.006,-8.63895 -10e-4,-12.95382 z M 504.49938,384.38366 c -0.20804,0 -0.37293,-0.21419 -0.37293,-0.47925 0,-0.26351 0.16489,-0.47772 0.37293,-0.47772 0.20958,0 0.37601,0.21421 0.37601,0.47772 0,0.26506 -0.16643,0.47925 -0.37601,0.47925 z m 3.86333,-2.61356 c 0,-1.07255 -2.31615,-1.94015 -5.17628,-1.94015 -2.8586,0 -5.17629,0.8676 -5.17629,1.94015 0,0.80595 1.30986,1.49633 3.17451,1.79066 -0.0231,0.12175 -0.0385,0.24811 -0.0385,0.37602 0,1.1311 0.91845,2.05109 2.05264,2.05109 1.13265,0 2.0511,-0.91999 2.0511,-2.05109 0,-0.12945 -0.0154,-0.25736 -0.037,-0.38064 1.85231,-0.29588 3.14984,-0.98472 3.14984,-1.78604 z m -8.94562,12.81359 c -0.25119,0.0385 -0.39604,0.44844 -0.32515,0.91382 0.0725,0.4623 0.33286,0.81058 0.5825,0.77051 0.25118,-0.037 0.39758,-0.4469 0.32515,-0.91074 -0.0725,-0.46539 -0.33131,-0.81212 -0.5825,-0.77359 z m 59.44796,-190.91553 c 0.0416,-0.39758 0.0755,-0.79516 0.11711,-1.18659 -1.79991,0.0339 -3.57825,0.47309 -4.93588,1.72594 1.60882,-0.15872 3.20223,-0.40528 4.81877,-0.53935"
     inkscape:connector-curvature="0" /></svg>